HIERARCHY
ROOT root
{
	OFFSET	0	13.1	24.9
	CHANNELS 6  Xposition Yposition Zposition Xrotation Yrotation Zrotation
	JOINT spine_1
	{
		OFFSET	0	9.99999	0
		CHANNELS 3  Xrotation Yrotation Zrotation
		JOINT spine_2
		{
			OFFSET	0	112	-10
			CHANNELS 3  Xrotation Yrotation Zrotation
			JOINT spine_3
			{
				OFFSET	0	206.5	19.3
				CHANNELS 3  Xrotation Yrotation Zrotation
				JOINT spine_4
				{
					OFFSET	0	110.4	14.6
					CHANNELS 3  Xrotation Yrotation Zrotation
					JOINT neck_1
					{
						OFFSET	0	71.8	-50.3
						CHANNELS 3  Xrotation Yrotation Zrotation
						JOINT neck_2
						{
							OFFSET	0	86.2	-25.8
							CHANNELS 3  Xrotation Yrotation Zrotation
							JOINT head_ee
							{
								OFFSET	0	179.8	-8.7
								CHANNELS 3  Xrotation Yrotation Zrotation
								End Site
								{
									OFFSET	1	0	0
								}
							}
						}
					}
					JOINT left_clavicle
					{
						OFFSET	-43.2	22.4	-70.8
						CHANNELS 3  Xrotation Yrotation Zrotation
						JOINT left_shoulder
						{
							OFFSET	-93.9	-5.79999	48.7
							CHANNELS 3  Xrotation Yrotation Zrotation
							JOINT left_elbow
							{
								OFFSET	-291.4	-30.8	15.2
								CHANNELS 3  Xrotation Yrotation Zrotation
								JOINT left_lowarm_twist
								{
									OFFSET	-110.7	-3.89999	13.6
									CHANNELS 3  Xrotation Yrotation Zrotation
									JOINT left_hand
									{
										OFFSET	-110.7	-3.89999	13.6
										CHANNELS 3  Xrotation Yrotation Zrotation
										JOINT left_ee
										{
											OFFSET	-80.8	-5.10001	12.1
											CHANNELS 3  Xrotation Yrotation Zrotation
											End Site
											{
												OFFSET	1	0	0
											}
										}
									}
								}
							}
						}
					}
					JOINT right_clavicle
					{
						OFFSET	43.2	22.4	-70.8
						CHANNELS 3  Xrotation Yrotation Zrotation
						JOINT right_shoulder
						{
							OFFSET	93.9	-5.79999	48.7
							CHANNELS 3  Xrotation Yrotation Zrotation
							JOINT right_elbow
							{
								OFFSET	291.4	-30.8	15.2
								CHANNELS 3  Xrotation Yrotation Zrotation
								JOINT right_lowarm_twist
								{
									OFFSET	110.7	-3.89999	13.6
									CHANNELS 3  Xrotation Yrotation Zrotation
									JOINT right_hand
									{
										OFFSET	110.7	-3.89999	13.6
										CHANNELS 3  Xrotation Yrotation Zrotation
										JOINT right_ee
										{
											OFFSET	80.8	-5.10001	12.1
											CHANNELS 3  Xrotation Yrotation Zrotation
											End Site
											{
												OFFSET	1	0	0
											}
										}
									}
								}
							}
						}
					}
				}
			}
		}
	}
	JOINT left_hip
	{
		OFFSET	-82.8	-127.5	0.300001
		CHANNELS 3  Xrotation Yrotation Zrotation
		JOINT left_knee
		{
			OFFSET	-28.2	-396.7	2.2
			CHANNELS 3  Xrotation Yrotation Zrotation
			JOINT left_ankle
			{
				OFFSET	-11.7	-411.3	35.4
				CHANNELS 3  Xrotation Yrotation Zrotation
				JOINT left_toes
				{
					OFFSET	0	-60	-88.6
					CHANNELS 3  Xrotation Yrotation Zrotation
					JOINT left_foot_ee
					{
						OFFSET	-22.5	-16.5	-42.2
						CHANNELS 3  Xrotation Yrotation Zrotation
						End Site
						{
							OFFSET	1	0	0
						}
					}
				}
			}
		}
	}
	JOINT right_hip
	{
		OFFSET	82.8	-127.5	0.300001
		CHANNELS 3  Xrotation Yrotation Zrotation
		JOINT right_knee
		{
			OFFSET	28.2	-396.7	2.2
			CHANNELS 3  Xrotation Yrotation Zrotation
			JOINT right_ankle
			{
				OFFSET	11.7	-411.3	35.4
				CHANNELS 3  Xrotation Yrotation Zrotation
				JOINT right_toes
				{
					OFFSET	0	-60	-88.6
					CHANNELS 3  Xrotation Yrotation Zrotation
					JOINT right_foot_ee
					{
						OFFSET	22.5	-16.5	-42.2
						CHANNELS 3  Xrotation Yrotation Zrotation
						End Site
						{
							OFFSET	1	0	0
						}
					}
				}
			}
		}
	}
}
MOTION
Frames: 6
Frame Time: 0.02
1372.05 701.618 -1475.22 -17.9565559052 33.9820126933 12.6409978825 3.97739 -0.133149 -0.371706 3.97746 -0.109227 -0.379425 3.97814 -0.0543055 -0.391081 3.97795 -0.115387 -0.377597 -6.54112 16.6665 -2.74892 -6.43875 32.9175 0.552979 -0.0 0.0 -0.0 6.21959 7.16457 12.0457 -10.2637 -21.1892 48.8684 2.24447 -48.025 0.999992 15.6748 0.283568 -1.97601 -2.16613 -3.3841 -16.2167 -0.0 0.0 -0.0 8.24436 11.2099 -15.997 -31.6023 10.8096 -61.7479 0.219399 6.20293 -0.0118879 37.1803 0.210784 4.66257 0.119579 -8.98676 -4.50312 0.0 0.0 0.0 -0.397865 8.03416 6.13737 -12.7152 0.311297 1.9225 31.2733 22.3711 -4.19158 7.12622 -0.0 -0.0 -0.0 0.0 -0.0 42.9096 3.12576 -7.15969 5.63395 0.272655 0.820987 -22.8625 10.9947 -3.65165 3.37001 -0.0 -0.0 0.0 0.0 0.0 
1357.38457792 700.157 -1488.847355 -18.355776757 34.7611748549 12.4969235908 3.97292 -0.103762 -0.155271 3.97293 -0.0936717 -0.161559 3.97319 -0.0697939 -0.173218 3.97316 -0.0962745 -0.160022 -6.48311 16.5902 -3.04714 -6.36421 32.9823 0.216816 -0.0 0.0 -0.0 6.22959 5.85322 12.0792 -10.8188 -20.8141 49.2157 2.1539 -46.8501 0.933284 16.4535 0.283463 -2.07546 -2.05092 -2.97479 -15.2217 -0.0 0.0 -0.0 8.47362 11.4341 -16.4836 -31.3515 10.9135 -61.574 0.244825 6.91519 -0.0147923 37.1467 0.209232 4.65856 0.0726352 -9.86837 -4.55613 0.0 0.0 0.0 -0.568202 7.91975 6.33726 -13.1258 0.314192 1.98543 30.8422 22.1604 -4.13907 7.25324 -0.0 -0.0 -0.0 0.0 -0.0 42.9168 2.89709 -6.74712 5.30681 0.254621 0.774065 -22.6256 12.4124 -3.64722 3.46866 -0.0 -0.0 0.0 0.0 0.0 
1340.80252747 700.532 -1507.49785737 -19.6564882395 35.0035383326 13.783719722 4.02522 -0.122126 -0.199949 4.02523 -0.109156 -0.207314 4.02562 -0.0788291 -0.220636 4.02557 -0.112685 -0.205417 -6.29066 16.2309 -3.23559 -6.14331 32.4297 -0.108772 -0.0 0.0 -0.0 6.06475 5.01813 11.7763 -12.0981 -20.4764 49.6577 2.01946 -45.0057 0.836677 17.0017 0.282577 -2.14548 -1.83582 -2.11024 -13.3316 -0.0 0.0 -0.0 8.68865 11.5713 -16.9439 -30.8722 10.5237 -61.7033 0.280001 7.89696 -0.0193266 37.1512 0.209439 4.6591 0.0293389 -10.8297 -4.66574 0.0 0.0 0.0 -1.01604 8.00273 5.97785 -12.8607 0.312374 1.9448 29.8543 20.9276 -4.00407 7.38147 -0.0 -0.0 -0.0 0.0 -0.0 43.0189 3.06468 -6.78873 3.36486 0.153119 0.493519 -22.633 13.434 -3.67424 3.49535 -0.0 -0.0 0.0 0.0 0.0 
1324.49001213 707.844 -1526.14708566 -20.6595486376 36.0885315549 14.4410501845 3.97286 -0.0700457 -0.337535 3.97292 -0.0484257 -0.341308 3.97317 0.000505844 -0.344725 3.97301 -0.0539431 -0.340479 -5.66829 15.9124 -3.81501 -5.42295 32.196 -0.957722 -0.0 0.0 -0.0 6.05189 5.04292 11.7521 -13.8773 -20.054 50.7367 1.92406 -43.6205 0.770027 17.3147 0.281771 -2.18545 -1.66882 -1.37721 -11.8477 -0.0 0.0 -0.0 8.91649 12.0079 -17.4239 -30.304 10.3527 -61.5532 0.309878 8.72722 -0.0236459 37.1768 0.210621 4.66215 0.0177408 -11.3681 -4.80815 0.0 0.0 0.0 -1.04974 7.83269 5.73351 -12.8302 0.312154 1.94014 28.7011 20.1816 -3.86011 7.32527 -0.0 -0.0 -0.0 0.0 -0.0 42.7443 3.00452 -6.39274 1.93594 0.0845486 0.285022 -23.1157 13.5906 -3.75661 3.23495 -0.0 -0.0 0.0 0.0 0.0 
1286.44416969 718.587 -1559.73260944 -20.1527130208 38.1030872281 14.4903297874 3.89913 0.0874604 -0.207589 3.89915 0.100493 -0.201603 3.89879 0.12833 -0.185133 3.89875 0.0974811 -0.203076 -5.30872 15.5298 -3.94832 -5.02178 31.5516 -1.27533 -0.0 0.0 -0.0 5.80613 5.43746 11.2925 -17.2158 -19.085 53.241 1.70516 -40.1839 0.623767 17.5445 0.281041 -2.21479 -1.47009 -0.355879 -10.0278 -0.0 0.0 -0.0 9.3009 12.4621 -18.2473 -28.9097 10.6132 -61.5017 0.37021 10.3923 -0.0336667 37.1654 0.210094 4.66079 -0.0179637 -12.1267 -4.88561 0.0 0.0 0.0 0.249797 7.65059 4.84978 -14.0863 0.319203 2.13273 28.3483 19.2378 -3.8048 7.38124 -0.0 -0.0 -0.0 0.0 -0.0 40.6946 3.61412 -6.05536 -2.23132 -0.0854202 -0.331757 -22.2919 14.6739 -3.65188 3.42538 -0.0 -0.0 0.0 0.0 0.0 
1257.6515747 721.018 -1587.44044014 -19.4797920445 38.7513363937 13.6393970566 3.68759 0.155797 -0.126328 3.68759 0.163519 -0.116158 3.68726 0.178806 -0.0908827 3.68728 0.162209 -0.117981 -6.04545 15.2915 -3.62643 -5.86576 30.9448 -0.76701 -0.0 0.0 -0.0 5.52936 6.90682 10.7834 -19.1445 -18.5681 53.9821 1.55679 -37.6363 0.530554 17.8755 0.279782 -2.25705 -1.09412 -0.908691 -7.72962 -0.0 0.0 -0.0 9.51999 12.9607 -18.7109 -28.2855 11.4945 -61.3324 0.464289 12.9527 -0.0527052 37.1637 0.210018 4.66059 -0.0751814 -13.2311 -4.96675 0.0 0.0 0.0 0.757192 7.71988 3.90949 -20.0579 0.294947 3.04821 31.5796 18.6494 -4.15536 8.17382 -0.0 -0.0 -0.0 0.0 -0.0 38.7566 3.78889 -5.69604 -5.17652 -0.178253 -0.774175 -18.543 14.6042 -3.034 3.16054 -0.0 -0.0 0.0 0.0 0.0 
